<svg xmlns="http://www.w3.org/2000/svg" xmlns:xlink="http://www.w3.org/1999/xlink" id="Layer_1" x="0" y="0" enable-background="new 0 0 100 100" version="1.1" viewBox="0 0 100 100" xml:space="preserve"><g><path d="M26,25.3h12.3c1.5,0,2.8-1.2,2.8-2.8s-1.2-2.8-2.8-2.8H26c-1.5,0-2.8,1.2-2.8,2.8S24.5,25.3,26,25.3z"/><path d="M45.3,31.3H26c-1.5,0-2.8,1.2-2.8,2.8s1.2,2.8,2.8,2.8h19.3c1.5,0,2.8-1.2,2.8-2.8S46.8,31.3,45.3,31.3z"/><path d="M43.3,42.8H26c-1.5,0-2.8,1.2-2.8,2.8s1.2,2.8,2.8,2.8h17.3c1.5,0,2.8-1.2,2.8-2.8S44.8,42.8,43.3,42.8z"/></g><path d="M94.4,83.8L73.2,62.6c-1.9-1.9-4.9-1.9-6.8-0.1l-9.3-9.2c4.3-5.2,7-11.9,7-19.2c0-16.5-13.4-30-30-30s-30,13.4-30,30	s13.4,30,30,30c7.2,0,13.9-2.6,19.1-6.9l9.3,9.2l-0.1,0.1c-1.9,1.9-1.9,5.1,0,7l21.2,21.1c1.9,1.9,5.1,1.9,7,0l3.8-3.8	C96.3,88.8,96.3,85.7,94.4,83.8z M9.7,34.1c0-13.5,11-24.5,24.5-24.5s24.5,11,24.5,24.5s-11,24.5-24.5,24.5S9.7,47.5,9.7,34.1z"/></svg>