<svg xmlns="http://www.w3.org/2000/svg" xmlns:xlink="http://www.w3.org/1999/xlink" id="Layer_1" x="0" y="0" enable-background="new 0 0 100 100" version="1.1" viewBox="0 0 100 100" xml:space="preserve"><g><path d="M12.8,50L55.5,7.3c1.1-1.1,1.1-2.8,0-3.9c-1.1-1.1-2.8-1.1-3.9,0L7.7,47.3C7,48,6.6,49,6.6,50s0.4,2,1.1,2.7l43.9,43.9 c0.5,0.5,1.2,0.8,1.9,0.8s1.4-0.3,1.9-0.8c1.1-1.1,1.1-2.8,0-3.9L12.8,50z"/><path d="M49.9,50L92.6,7.3c1.1-1.1,1.1-2.8,0-3.9c-1.1-1.1-2.8-1.1-3.9,0L44.8,47.3C44.1,48,43.7,49,43.7,50s0.4,2,1.1,2.7 l43.9,43.9c0.5,0.5,1.2,0.8,1.9,0.8s1.4-0.3,1.9-0.8c1.1-1.1,1.1-2.8,0-3.9L49.9,50z"/></g></svg>