<svg xmlns="http://www.w3.org/2000/svg" xmlns:xlink="http://www.w3.org/1999/xlink" id="Layer_2_1_" x="0" y="0" enable-background="new 0 0 100 100" version="1.1" viewBox="0 0 100 100" xml:space="preserve"><path d="M77.2,26.5l-10-6.4c-0.8-0.7-1.7-0.8-2.4-0.8H45V4.5c0-1.5-1.2-2.8-2.8-2.8S39.5,3,39.5,4.5v14.8H25c-2.3,0-4,1.7-4,4v13.1	c0,2.3,1.7,4,4,4h14.5v55.1c0,1.5,1.2,2.8,2.8,2.8S45,97,45,95.5V40.4h19.8c0.5,0,1.5,0,2.3-0.6l10.1-6.4c1.2-0.7,1.9-2,1.9-3.5	S78.3,27.3,77.2,26.5z M64.5,34.9H26.5V24.8h37.8l8.1,5.2L64.5,34.9z"/></svg>