<svg xmlns="http://www.w3.org/2000/svg" xmlns:xlink="http://www.w3.org/1999/xlink" id="Layer_1" x="0" y="0" enable-background="new 0 0 100 100" version="1.1" viewBox="0 0 100 100" xml:space="preserve"><g><path d="M6.6,6C5.1,6,3.9,7.3,3.9,8.8v82.4c0,1.5,1.2,2.8,2.8,2.8s2.8-1.2,2.8-2.8V8.8C9.4,7.3,8.1,6,6.6,6z"/><path d="M93.4,47.3H33.9l9.9-10c1.1-1.1,1.1-2.8,0-3.9c-1.1-1.1-2.8-1.1-3.9,0L23.5,50l16.5,16.5c0.5,0.5,1.2,0.8,1.9,0.8 s1.4-0.3,1.9-0.8c1.1-1.1,1.1-2.8,0-3.9L34,52.8h59.4c1.5,0,2.8-1.2,2.8-2.8S94.9,47.3,93.4,47.3z"/></g></svg>