<svg xmlns="http://www.w3.org/2000/svg" xmlns:xlink="http://www.w3.org/1999/xlink" id="Layer_1" x="0" y="0" enable-background="new 0 0 100 100" version="1.1" viewBox="0 0 100 100" xml:space="preserve"><g><path d="M36.8,18.8H16.7c-2.1,0-3.8,1.7-3.8,3.8v55c0,2.1,1.7,3.8,3.8,3.8h20.1c2.1,0,3.8-1.7,3.8-3.8v-55 C40.5,20.4,38.9,18.8,36.8,18.8z M35,75.8H18.4V24.3H35V75.8z"/><path d="M83.3,18.8H63.2c-2.1,0-3.8,1.7-3.8,3.8v55c0,2.1,1.7,3.8,3.8,3.8h20.1c2.1,0,3.8-1.7,3.8-3.8v-55 C87.1,20.4,85.4,18.8,83.3,18.8z M81.6,75.8H65V24.3h16.6V75.8z"/></g></svg>