<svg xmlns="http://www.w3.org/2000/svg" xmlns:xlink="http://www.w3.org/1999/xlink" id="Layer_1" x="0" y="0" enable-background="new 0 0 100 100" version="1.1" viewBox="0 0 100 100" xml:space="preserve"><style type="text/css">.st0{display:none;opacity:5.000000e-02}.st1{display:inline;fill:none;stroke:#000;stroke-miterlimit:10}</style><g class="st0"><rect width="100" height="100" class="st1"/><circle cx="50" cy="50" r="50" class="st1"/><rect width="70.3" height="70.3" x="14.8" y="14.8" class="st1"/><circle cx="50" cy="50" r="35.2" class="st1"/><rect width="49.7" height="49.7" x="25.2" y="25.2" class="st1"/><circle cx="50" cy="50" r="24.8" class="st1"/><line x1="0" x2="100" y1="0" y2="100" class="st1"/><line x1="100" x2="0" y1="0" y2="100" class="st1"/><line x1="50" x2="50" y1="0" y2="100" class="st1"/><line x1="0" x2="100" y1="50" y2="50" class="st1"/></g><g><path d="M14.2,22.9c-2.6,0-4.8,2.1-4.8,4.8v44.8c0,2.6,2.1,4.8,4.8,4.8h18.3l24.5,17c1.3,0.9,3.1,0,3.1-1.6V7.5 c0-1.6-1.8-2.6-3.1-1.6l-24.5,17H14.2z M14.9,28.4h15.7v43.3H14.9V28.4z M54.7,85.8L36.1,72.9V27.1l18.5-12.8V85.8z"/><path d="M68.5,39.4c-1.1,1.1-1.1,2.8,0,3.9c3.7,3.7,3.7,9.6,0.1,13.3c-0.6,0.5-0.9,1.2-0.9,2c0,1.5,1.2,2.8,2.8,2.8h1.1l0.8-0.8 c5.8-5.8,5.8-15.3,0-21.2C71.3,38.3,69.6,38.3,68.5,39.4z"/><path d="M82.4,30.2c-1.1-1.1-2.8-1.1-3.9,0c-1.1,1.1-1.1,2.8,0,3.9c8.7,8.7,8.8,22.9,0.1,31.7c-0.6,0.5-0.9,1.2-0.9,2.1 c0,1.5,1.2,2.8,2.8,2.8h1.1l0.8-0.8C93.3,58.9,93.3,41.1,82.4,30.2z"/></g></svg>