<svg xmlns="http://www.w3.org/2000/svg" xmlns:xlink="http://www.w3.org/1999/xlink" id="Layer_1" x="0" y="0" enable-background="new 0 0 100 100" version="1.1" viewBox="0 0 100 100" xml:space="preserve"><g><path d="M32.2,15.4H95c1.5,0,2.8-1.2,2.8-2.8S96.5,9.9,95,9.9H32.2c-1.5,0-2.8,1.2-2.8,2.8S30.7,15.4,32.2,15.4z"/><path d="M95,34.8H18.6c-1.5,0-2.8,1.2-2.8,2.8s1.2,2.8,2.8,2.8H95c1.5,0,2.8-1.2,2.8-2.8S96.5,34.8,95,34.8z"/><path d="M95,59.7H41.4c-1.5,0-2.8,1.2-2.8,2.8s1.2,2.8,2.8,2.8H95c1.5,0,2.8-1.2,2.8-2.8S96.5,59.7,95,59.7z"/><path d="M95,84.6H5c-1.5,0-2.8,1.2-2.8,2.8s1.2,2.8,2.8,2.8h90c1.5,0,2.8-1.2,2.8-2.8S96.5,84.6,95,84.6z"/></g></svg>