<svg xmlns="http://www.w3.org/2000/svg" xmlns:xlink="http://www.w3.org/1999/xlink" id="Layer_1" x="0" y="0" enable-background="new 0 0 100 100" version="1.1" viewBox="0 0 100 100" xml:space="preserve"><g><path d="M5,15.3h90c1.5,0,2.8-1.2,2.8-2.8S96.5,9.8,95,9.8H5c-1.5,0-2.8,1.2-2.8,2.8S3.5,15.3,5,15.3z"/><path d="M95,34.8H5c-1.5,0-2.8,1.2-2.8,2.8s1.2,2.8,2.8,2.8h90c1.5,0,2.8-1.2,2.8-2.8S96.5,34.8,95,34.8z"/><path d="M95,59.7H5c-1.5,0-2.8,1.2-2.8,2.8s1.2,2.8,2.8,2.8h90c1.5,0,2.8-1.2,2.8-2.8S96.5,59.7,95,59.7z"/><path d="M65,84.7H5c-1.5,0-2.8,1.2-2.8,2.8s1.2,2.8,2.8,2.8h60c1.5,0,2.8-1.2,2.8-2.8S66.5,84.7,65,84.7z"/></g></svg>