<svg xmlns="http://www.w3.org/2000/svg" xmlns:xlink="http://www.w3.org/1999/xlink" id="Layer_1" x="0" y="0" enable-background="new 0 0 100 100" version="1.1" viewBox="0 0 100 100" xml:space="preserve"><g><path d="M18.6,15.4h62.8c1.5,0,2.8-1.2,2.8-2.8c0-1.6-1.3-2.8-2.8-2.8H18.6c-1.6,0-2.8,1.2-2.8,2.8C15.8,14.2,17.1,15.4,18.6,15.4z"/><path d="M11.8,40.4h76.4c1.6,0,2.8-1.2,2.8-2.8c0-1.6-1.3-2.8-2.8-2.8H11.8C10.3,34.8,9,36,9,37.6C9,39.2,10.3,40.4,11.8,40.4z"/><path d="M23.2,59.7c-1.5,0-2.8,1.2-2.8,2.8s1.3,2.8,2.8,2.8h53.6c1.6,0,2.8-1.2,2.8-2.8s-1.3-2.8-2.8-2.8H23.2z"/><path d="M95,84.6H5c-1.5,0-2.8,1.2-2.8,2.8c0,1.6,1.3,2.8,2.8,2.8h90c1.6,0,2.8-1.2,2.8-2.8C97.8,85.8,96.5,84.6,95,84.6z"/></g></svg>