<svg xmlns="http://www.w3.org/2000/svg" xmlns:xlink="http://www.w3.org/1999/xlink" id="Layer_1" x="0" y="0" enable-background="new 0 0 100 100" version="1.1" viewBox="0 0 100 100" xml:space="preserve"><path d="M93,14.7H7c-2.6,0-4.8,2.1-4.8,4.8V62c0,2.6,2.1,4.8,4.8,4.8h33.7l-3.5,13.1h-7.3c-1.5,0-2.8,1.2-2.8,2.8s1.2,2.8,2.8,2.8	h40.3c1.5,0,2.8-1.2,2.8-2.8s-1.2-2.8-2.8-2.8h-7.3l-3.5-13.1H93c2.6,0,4.8-2.1,4.8-4.8V19.4C97.8,16.8,95.6,14.7,93,14.7z M57.2,79.8H42.8l3.5-13.1h7.3L57.2,79.8z M92.3,61.3H7.8V20.2h84.5V61.3z"/></svg>