<svg xmlns="http://www.w3.org/2000/svg" xmlns:xlink="http://www.w3.org/1999/xlink" id="Layer_2_1_" x="0" y="0" enable-background="new 0 0 100 100" version="1.1" viewBox="0 0 100 100" xml:space="preserve"><g><path d="M5.5,31.7h89c1.5,0,2.8-1.2,2.8-2.8s-1.2-2.8-2.8-2.8h-89c-1.5,0-2.8,1.2-2.8,2.8S4,31.7,5.5,31.7z"/><path d="M94.5,47.3h-89c-1.5,0-2.8,1.2-2.8,2.8s1.2,2.8,2.8,2.8h89c1.5,0,2.8-1.2,2.8-2.8S96,47.3,94.5,47.3z"/><path d="M94.5,68.3h-89c-1.5,0-2.8,1.2-2.8,2.8s1.2,2.8,2.8,2.8h89c1.5,0,2.8-1.2,2.8-2.8S96,68.3,94.5,68.3z"/></g></svg>