<svg xmlns="http://www.w3.org/2000/svg" xmlns:xlink="http://www.w3.org/1999/xlink" id="Layer_1" x="0" y="0" enable-background="new 0 0 100 100" version="1.1" viewBox="0 0 100 100" xml:space="preserve"><g><path d="M93,14.7H7c-2.6,0-4.8,2.1-4.8,4.8V62c0,2.6,2.1,4.8,4.8,4.8h39v13.1H35.6c-1.5,0-2.8,1.2-2.8,2.8c0,1.6,1.2,2.8,2.8,2.8 h28.8c1.5,0,2.8-1.2,2.8-2.8c0-1.6-1.2-2.8-2.8-2.8H54V66.8h39c2.6,0,4.8-2.1,4.8-4.8V19.4C97.8,16.8,95.6,14.7,93,14.7z M92.3,61.3H7.8V20.2h84.5V61.3z"/><path d="M19.9,54h22c1.1,0,2-0.9,2-2V29.5c0-1.1-0.9-2-2-2h-22c-1.1,0-2,0.9-2,2V52C17.9,53.1,18.8,54,19.9,54z"/><path d="M52.9,40.5h27.3c1.1,0,2-0.9,2-2v-9.1c0-1.1-0.9-2-2-2H52.9c-1.1,0-2,0.9-2,2v9.1C50.9,39.6,51.8,40.5,52.9,40.5z"/><path d="M52.9,54h27.3c1.1,0,2-0.9,2-2v-1.5c0-1.1-0.9-2-2-2H52.9c-1.1,0-2,0.9-2,2V52C50.9,53.1,51.8,54,52.9,54z"/></g></svg>