<svg xmlns="http://www.w3.org/2000/svg" xmlns:xlink="http://www.w3.org/1999/xlink" id="Layer_1" x="0" y="0" enable-background="new 0 0 100 100" version="1.1" viewBox="0 0 100 100" xml:space="preserve"><path d="M72.5,40.2c0-17.6-9.2-37.1-22.5-37.1S27.5,22.6,27.5,40.2C27.5,57.9,36,72,47.2,74v20.1c0,1.5,1.2,2.8,2.8,2.8	s2.8-1.2,2.8-2.8V74C64,72,72.5,57.9,72.5,40.2z M52.7,68.4V57.7c0-1.5-1.2-2.8-2.8-2.8s-2.8,1.2-2.8,2.8v10.7	C39.3,66.1,33,54.1,33,40.2c0-16.2,8.2-31.6,17-31.6s17,15.4,17,31.6C67,54.1,60.7,66.1,52.7,68.4z"/></svg>