<svg xmlns="http://www.w3.org/2000/svg" xmlns:xlink="http://www.w3.org/1999/xlink" id="Layer_2_1_" x="0" y="0" enable-background="new 0 0 100 100" version="1.1" viewBox="0 0 100 100" xml:space="preserve"><path d="M86.4,13.2h-2.7V7.5c0-2.6-2.1-4.8-4.8-4.8H30.2c-2.6,0-4.8,2.1-4.8,4.8v5.7h-9.8c-2.6,0-4.8,2.1-4.8,4.8v24.7	c0,2.6,2.1,4.8,4.8,4.8h36.2v10.3h-5.1c-1.1,0-2,0.9-2,2v35.6c0,1.1,0.9,2,2,2h15.7c1.1,0,2-0.9,2-2V59.8c0-1.1-0.9-2-2-2h-5V46.6	c0-2.6-2.1-4.8-4.8-4.8H16.3V18.7h9.1v6.6c0,2.6,2.1,4.8,4.8,4.8H79c2.6,0,4.8-2.1,4.8-4.8v-6.6h2.7c1.5,0,2.8-1.2,2.8-2.8	S87.9,13.2,86.4,13.2z M78.2,24.5H30.9V8.3h47.3V24.5z"/></svg>